<svg width="134" height="40" viewBox="0 0 134 40" fill="none" xmlns="http://www.w3.org/2000/svg">
<path d="M14.892 30.6447C9.67759 30.6447 5.45312 26.4063 5.45312 21.2059C5.45312 15.9916 9.69154 11.7671 14.892 11.7671C18.3217 11.7671 21.4866 13.6353 23.1596 16.6468L19.8972 18.4593C18.8933 16.6329 16.9693 15.5036 14.892 15.5036C11.741 15.5036 9.17568 18.0689 9.17568 21.2199C9.17568 24.3708 11.741 26.9361 14.892 26.9361C16.9136 26.9361 18.7539 25.8905 19.7996 24.1338L23.0063 26.0438C21.3053 28.8741 18.1962 30.6447 14.892 30.6447Z" fill="#EB3B27"/>
<path d="M74.7318 30.6447C69.5174 30.6447 65.293 26.4063 65.293 21.2059C65.293 15.9916 69.5314 11.7671 74.7318 11.7671C79.9462 11.7671 84.1706 16.0055 84.1706 21.2059C84.1706 26.4063 79.9322 30.6447 74.7318 30.6447ZM74.7318 15.4757C71.5809 15.4757 69.0155 18.0411 69.0155 21.192C69.0155 24.3429 71.5809 26.9083 74.7318 26.9083C77.8827 26.9083 80.4481 24.3429 80.4481 21.192C80.4481 18.0411 77.8688 15.4757 74.7318 15.4757Z" fill="#EB3B27"/>
<path d="M64.2588 12.0318C63.4641 11.2371 62.2093 11.5996 61.5261 12.2828C61.1497 12.6592 60.7733 13.3981 60.4526 14.165C58.6541 12.5337 56.2421 11.5996 53.6349 11.7111C48.4205 11.9621 44.3773 16.4096 44.6283 21.624C44.8792 26.8384 49.3268 30.8816 54.5411 30.6306C59.7555 30.3797 63.7987 25.9321 63.5477 20.7178C63.4641 18.9332 62.8785 17.288 61.9583 15.8938C62.7809 15.5592 63.6035 15.1549 64.0078 14.7505C64.691 14.0813 65.0535 12.8265 64.2588 12.0318ZM54.3599 26.9081C51.209 27.0614 48.5181 24.6216 48.3648 21.4567C48.2114 18.3058 50.6513 15.6149 53.8161 15.4616C56.9671 15.3082 59.6579 17.7481 59.8113 20.913C59.9646 24.0639 57.5247 26.7547 54.3599 26.9081Z" fill="#EB3B27"/>
<path d="M62.7526 31.1466C62.3762 30.7005 61.7906 30.9375 61.4002 31.2442C60.8844 31.6485 60.3685 32.0389 59.8108 32.3875C58.7094 33.0706 57.4825 33.6144 56.1998 33.8235C54.959 34.0327 53.2441 34.0327 52.0032 33.8235C50.7066 33.6004 49.4936 33.0706 48.3922 32.3875C47.8345 32.0389 47.3187 31.6485 46.8028 31.2442C46.4124 30.9375 45.8269 30.7005 45.4504 31.1466C44.7394 32.011 45.1855 33.3634 45.7153 34.186C46.3985 35.2596 47.5836 35.9706 48.685 36.5422C48.7129 36.5562 48.7268 36.5701 48.7547 36.5701C50.3999 37.3927 52.0729 37.6994 54.1085 37.6994C56.158 37.6994 57.8171 37.3927 59.4623 36.5701C59.4902 36.5562 59.5041 36.5422 59.532 36.5422C60.6334 35.9706 61.8185 35.2596 62.5017 34.186C63.0175 33.3495 63.4637 32.011 62.7526 31.1466Z" fill="#EB3B27"/>
<path d="M33.4623 30.6447C28.2479 30.6447 24.0234 26.4063 24.0234 21.2059C24.0234 15.9916 28.2618 11.7671 33.4623 11.7671C38.6766 11.7671 42.9011 16.0055 42.9011 21.2059C42.9011 26.4063 38.6627 30.6447 33.4623 30.6447ZM33.4623 15.4757C30.3113 15.4757 27.746 18.0411 27.746 21.192C27.746 24.3429 30.3113 26.9083 33.4623 26.9083C36.6132 26.9083 39.1785 24.3429 39.1785 21.192C39.1785 18.0411 36.6132 15.4757 33.4623 15.4757Z" fill="#EB3B27"/>
<path d="M116.153 11.7529C115.874 11.7529 115.595 11.7669 115.331 11.7948C110.618 12.2548 107.509 15.6428 107.411 20.3971C107.356 22.823 107.37 30.5051 107.384 30.6027H111.399C111.399 30.6027 111.399 23.0739 111.399 20.6062C111.399 17.8317 113.379 15.7404 116 15.7404C118.663 15.7404 120.601 17.7899 120.615 20.6062C120.615 22.8369 120.615 30.6445 120.615 30.6445H124.56C124.56 29.4594 124.63 22.0841 124.491 19.3653C124.281 15.1548 120.545 11.7529 116.153 11.7529Z" fill="#242424"/>
<path d="M104.355 11.7529H100.535V30.6306H104.355V11.7529Z" fill="#242424"/>
<path d="M102.531 9.59212C103.586 9.59212 104.441 8.73695 104.441 7.68205C104.441 6.62714 103.586 5.77197 102.531 5.77197C101.476 5.77197 100.621 6.62714 100.621 7.68205C100.621 8.73695 101.476 9.59212 102.531 9.59212Z" fill="#242424"/>
<path d="M97.2741 11.7531H91.3347V11.544C91.3347 8.3791 93.914 5.78586 97.0928 5.78586V2.02148C91.8506 2.02148 87.5843 6.28778 87.5843 11.53V11.7392H85.8555V15.2805H87.5843V21.1222V30.6168H91.4044V15.2805H97.2741V11.7531Z" fill="#242424"/>
</svg>
